<mxfile host="www.draw.io" modified="2020-02-22T02:21:20.324Z" agent="Mozilla/5.0 (Macintosh; Intel Mac OS X 10_15_3) AppleWebKit/537.36 (KHTML, like Gecko) Chrome/80.0.3987.106 Safari/537.36" etag="1p9IWZ1kuAMUcpWPsBN5" version="12.7.4" type="github">
  <diagram id="gytbM96AZH0K-lnOP9VI" name="Page-1">
    <mxGraphModel dx="1327" dy="826" grid="1" gridSize="10" guides="1" tooltips="1" connect="1" arrows="1" fold="1" page="1" pageScale="1" pageWidth="850" pageHeight="1100" math="0" shadow="0">
      <root>
        <mxCell id="0" />
        <mxCell id="1" parent="0" />
        <mxCell id="Nh4lbGQhCfYz_NIR6H5f-2" value="Home" style="rounded=1;whiteSpace=wrap;html=1;" vertex="1" parent="1">
          <mxGeometry x="60" y="50" width="100" height="30" as="geometry" />
        </mxCell>
        <mxCell id="Nh4lbGQhCfYz_NIR6H5f-3" value="Find" style="rounded=1;whiteSpace=wrap;html=1;" vertex="1" parent="1">
          <mxGeometry x="220" y="50" width="100" height="30" as="geometry" />
        </mxCell>
        <mxCell id="Nh4lbGQhCfYz_NIR6H5f-4" value="Mine" style="rounded=1;whiteSpace=wrap;html=1;" vertex="1" parent="1">
          <mxGeometry x="360" y="50" width="100" height="30" as="geometry" />
        </mxCell>
        <mxCell id="Nh4lbGQhCfYz_NIR6H5f-7" value="Search" style="rounded=1;whiteSpace=wrap;html=1;" vertex="1" parent="1">
          <mxGeometry x="60" y="180" width="100" height="30" as="geometry" />
        </mxCell>
        <mxCell id="Nh4lbGQhCfYz_NIR6H5f-9" value="dynamic" style="rounded=1;whiteSpace=wrap;html=1;" vertex="1" parent="1">
          <mxGeometry x="190" y="180" width="100" height="30" as="geometry" />
        </mxCell>
        <mxCell id="Nh4lbGQhCfYz_NIR6H5f-10" value="login" style="rounded=1;whiteSpace=wrap;html=1;" vertex="1" parent="1">
          <mxGeometry x="340" y="180" width="100" height="30" as="geometry" />
        </mxCell>
        <mxCell id="Nh4lbGQhCfYz_NIR6H5f-11" value="Reigster" style="rounded=1;whiteSpace=wrap;html=1;" vertex="1" parent="1">
          <mxGeometry x="470" y="180" width="100" height="30" as="geometry" />
        </mxCell>
        <mxCell id="Nh4lbGQhCfYz_NIR6H5f-12" value="search(process)" style="rounded=1;whiteSpace=wrap;html=1;" vertex="1" parent="1">
          <mxGeometry x="40" y="250" width="100" height="30" as="geometry" />
        </mxCell>
        <mxCell id="Nh4lbGQhCfYz_NIR6H5f-13" value="search(result)" style="rounded=1;whiteSpace=wrap;html=1;" vertex="1" parent="1">
          <mxGeometry x="180" y="260" width="100" height="30" as="geometry" />
        </mxCell>
        <mxCell id="Nh4lbGQhCfYz_NIR6H5f-14" value="detail" style="rounded=1;whiteSpace=wrap;html=1;" vertex="1" parent="1">
          <mxGeometry x="325" y="250" width="100" height="30" as="geometry" />
        </mxCell>
      </root>
    </mxGraphModel>
  </diagram>
</mxfile>
